<svg width="320" height="96" viewBox="0 0 320 96" fill="none" xmlns="http://www.w3.org/2000/svg">
  <rect width="320" height="96" rx="20" fill="#101010"/>
  <path d="M55 28H68L74.5 40.5L81 28H94L81 49V68H68V49L55 28Z" fill="#F7A600"/>
  <path d="M105 28H118V42.5H132C143.046 42.5 152 51.4543 152 62.5C152 73.5457 143.046 82.5 132 82.5H105V28ZM118 54.5V70H131C135.418 70 139 66.4183 139 62C139 57.5817 135.418 54 131 54H118V54.5Z" fill="#F7A600"/>
  <path d="M164 28H177L183.5 40.5L190 28H203L190 49V68H177V49L164 28Z" fill="#F7A600"/>
  <path d="M213 28H262V40H244V68H231V40H213V28Z" fill="#F7A600"/>
</svg>
